<svg width="32" height="32" viewBox="0 0 32 32" fill="none" xmlns="http://www.w3.org/2000/svg">
<path fill-rule="evenodd" clip-rule="evenodd" d="M5 8.8002C5 7.9162 5.716 7.2002 6.6 7.2002H21.8C22.684 7.2002 23.4 7.9162 23.4 8.8002V9.6002H5V8.8002ZM25 12.8002V10.4002H25.8C26.684 10.4002 27.4 11.1162 27.4 12.0002V12.8002H25ZM5 19.2002V12.0002H23.4V19.2002C23.4 20.0842 22.684 20.8002 21.8 20.8002H6.6C5.716 20.8002 5 20.0842 5 19.2002ZM25 20.8002V15.2002H27.4V23.2002C27.4 24.0842 26.684 24.8002 25.8 24.8002H10.6C9.716 24.8002 9 24.0842 9 23.2002V22.4002H23.4C24.284 22.4002 25 21.6842 25 20.8002ZM13.8 13.6002H7.4V14.4002H13.8V13.6002Z" fill="#002D73"/>
</svg>
