<svg width="91" height="14" viewBox="0 0 91 14" fill="none" xmlns="http://www.w3.org/2000/svg">
<g id="Logo">
<path id="Union" fill-rule="evenodd" clip-rule="evenodd" d="M14.4663 0.542969H16.602V11.3732H14.4663V0.542969ZM9.87728 1.14899H12.013V11.979H9.87728V1.14899ZM7.42396 1.82555H5.28825V12.6576H7.42396V1.82555ZM0.699219 2.50964H2.83493L2.83494 13.343H0.699227L0.699219 2.50964ZM38.5996 2.36602C35.7607 2.36602 33.7182 4.33122 33.7182 6.91538C33.7182 9.58852 35.9405 11.4841 38.5996 11.4841C41.3691 11.4841 43.5208 9.48278 43.5208 6.91538C43.5208 4.34798 41.3691 2.36602 38.5996 2.36602ZM38.5996 9.35899C36.9952 9.35899 35.902 8.31449 35.902 6.91538C35.902 5.48145 36.9964 4.46533 38.5996 4.46533C40.2027 4.46533 41.3331 5.52787 41.3331 6.91538C41.3331 8.30288 40.1873 9.35899 38.5996 9.35899ZM44.4725 9.2699C45.7301 9.2699 46.3724 7.3047 46.5009 4.26018L46.5715 2.4897H54.049V11.3421H51.9538V4.50777H48.6371C48.4084 9.34082 47.0147 11.5536 44.4931 11.4131L44.1578 11.395V9.2699H44.4725ZM56.2547 5.72893C56.2547 7.13835 57.0255 8.24861 58.2085 8.71413L55.9901 11.3421H58.5592L60.5773 8.95139H62.7611V11.3421H64.86V2.4897H59.5162C57.5239 2.4897 56.2547 3.8527 56.2547 5.72893ZM62.7623 4.43942V7.05711H59.9055C58.9523 7.05711 58.4411 6.52584 58.4411 5.74698C58.4411 4.96812 58.9703 4.43685 59.9055 4.43685L62.7623 4.43942ZM69.5708 2.4897L73.0095 6.31307L76.361 2.4897H78.3713V11.3421H76.2723V5.69411L73.1868 9.04037H72.7989L69.6594 5.69411V11.3421H67.5604V2.4897H69.5708ZM83.1688 8.24346L88.3713 2.4897H90.2943V11.3421H88.1953V5.58837L82.9928 11.3421H81.0698V2.4897H83.1688V8.24346ZM24.084 2.5064H31.4921V9.28789H33.0092V13.3387H30.8742V11.3434H23.5201V13.3387L21.4031 13.343V9.30594L21.985 9.28789C23.2426 9.25307 23.908 6.82752 24.0134 4.27688L24.084 2.5064ZM24.9138 9.28789H29.3931V4.52576H26.1483C26.0777 6.47291 25.6717 8.13765 24.9138 9.28789Z" fill="#131A25"/>
</g>
</svg>
