<svg width="120" height="32" viewBox="0 0 120 32" fill="none" xmlns="http://www.w3.org/2000/svg">
<path d="M32.8691 12.8859H28.0365V20.4598H26.417V11.397H34.4886V20.4598H32.8691V12.8859ZM40.7813 15.3199H38.6824L38.6435 16.1355C38.6003 17.1454 38.5096 17.9438 38.3715 18.5307C38.2419 19.1176 38.0777 19.5621 37.8791 19.8642C37.6804 20.1577 37.4602 20.3433 37.2184 20.4209C36.9765 20.4986 36.7303 20.5375 36.4799 20.5375C36.3589 20.5375 36.238 20.5289 36.1171 20.5116C36.0048 20.503 35.9141 20.49 35.845 20.4727V18.9062C35.9487 18.9407 36.0609 18.9579 36.1819 18.9579C36.32 18.9579 36.4496 18.9321 36.5706 18.8803C36.7001 18.8199 36.8124 18.6731 36.9074 18.4401C37.0024 18.207 37.0801 17.8531 37.1406 17.3784C37.2097 16.9037 37.2572 16.2434 37.2831 15.3976L37.335 13.9863H42.2842V20.4598H40.7813V15.3199ZM44.2925 14.4395C44.5084 14.2755 44.8064 14.1374 45.1864 14.0252C45.5751 13.913 46.0501 13.8569 46.6116 13.8569C47.5617 13.8569 48.27 14.0338 48.7364 14.3877C49.2028 14.7416 49.436 15.3415 49.436 16.1873V20.4598H48.0109V19.2946C47.8554 19.6744 47.5876 19.9808 47.2076 20.2138C46.8362 20.4468 46.3913 20.5634 45.8731 20.5634C45.2167 20.5634 44.7027 20.3907 44.3313 20.0455C43.9685 19.6916 43.7872 19.1953 43.7872 18.5566C43.7872 18.1855 43.8519 17.879 43.9815 17.6374C44.1111 17.3957 44.2925 17.2058 44.5257 17.0677C44.7589 16.921 45.0396 16.8174 45.3678 16.757C45.6961 16.6966 46.0588 16.6664 46.4561 16.6664H47.9202V16.3815C47.9202 15.9241 47.8079 15.609 47.5833 15.4364C47.3674 15.2638 47.0435 15.1775 46.6116 15.1775C46.0156 15.1775 45.5362 15.2854 45.1735 15.5011C44.8107 15.7083 44.517 15.9845 44.2925 16.3297V14.4395ZM46.3525 19.2039C46.6116 19.2039 46.8318 19.1737 47.0132 19.1133C47.2032 19.0442 47.363 18.9623 47.4926 18.8673C47.6222 18.7637 47.7215 18.6516 47.7906 18.5307C47.8597 18.4098 47.9029 18.2933 47.9202 18.1811V17.6503H46.6375C46.1884 17.6503 45.8558 17.7021 45.6399 17.8057C45.424 17.9093 45.316 18.1078 45.316 18.4012C45.316 18.6516 45.4023 18.85 45.5751 18.9968C45.7565 19.1349 46.0156 19.2039 46.3525 19.2039ZM52.6614 15.3199H50.5884V13.9863H56.2632V15.3199H54.1643V20.4598H52.6614V15.3199ZM57.5235 13.9863H59.0265V18.3753L62.1359 13.9863H63.574V20.4598H62.0711V16.019L58.9617 20.4598H57.5235V13.9863ZM71.8683 18.1811C71.6437 18.3106 71.3846 18.4056 71.0909 18.466C70.7972 18.5264 70.4992 18.5566 70.1969 18.5566C69.4196 18.5566 68.8106 18.3753 68.3701 18.0128C67.9296 17.6503 67.7094 17.0807 67.7094 16.3038V13.9863H69.2252V16.0708C69.2252 16.4592 69.3289 16.7484 69.5362 16.9382C69.7521 17.1195 70.063 17.2101 70.469 17.2101C71.0045 17.2101 71.4709 17.1109 71.8683 16.9123V13.9863H73.3841V20.4598H71.8683V18.1811ZM75.3732 14.4395C75.5891 14.2755 75.8871 14.1374 76.2671 14.0252C76.6558 13.913 77.1309 13.8569 77.6923 13.8569C78.6424 13.8569 79.3507 14.0338 79.8171 14.3877C80.2835 14.7416 80.5167 15.3415 80.5167 16.1873V20.4598H79.0916V19.2946C78.9361 19.6744 78.6683 19.9808 78.2883 20.2138C77.9169 20.4468 77.472 20.5634 76.9538 20.5634C76.2974 20.5634 75.7835 20.3907 75.412 20.0455C75.0493 19.6916 74.8679 19.1953 74.8679 18.5566C74.8679 18.1855 74.9326 17.879 75.0622 17.6374C75.1918 17.3957 75.3732 17.2058 75.6064 17.0677C75.8396 16.921 76.1203 16.8174 76.4485 16.757C76.7768 16.6966 77.1395 16.6664 77.5368 16.6664H79.0009V16.3815C79.0009 15.9241 78.8886 15.609 78.664 15.4364C78.4481 15.2638 78.1242 15.1775 77.6923 15.1775C77.0963 15.1775 76.6169 15.2854 76.2542 15.5011C75.8914 15.7083 75.5978 15.9845 75.3732 16.3297V14.4395ZM77.4332 19.2039C77.6923 19.2039 77.9126 19.1737 78.0939 19.1133C78.284 19.0442 78.4437 18.9623 78.5733 18.8673C78.7029 18.7637 78.8022 18.6516 78.8713 18.5307C78.9404 18.4098 78.9836 18.2933 79.0009 18.1811V17.6503H77.7182C77.2691 17.6503 76.9366 17.7021 76.7206 17.8057C76.5047 17.9093 76.3967 18.1078 76.3967 18.4012C76.3967 18.6516 76.4831 18.85 76.6558 18.9968C76.8372 19.1349 77.0963 19.2039 77.4332 19.2039ZM87.4216 19.8124C87.2748 19.9937 87.0114 20.1706 86.6313 20.3433C86.2513 20.5159 85.7978 20.6022 85.2709 20.6022C84.7527 20.6022 84.282 20.5331 83.8587 20.3951C83.4355 20.2483 83.0727 20.0325 82.7704 19.7477C82.4681 19.4629 82.2349 19.109 82.0707 18.6861C81.9067 18.2632 81.8246 17.7668 81.8246 17.1972C81.8246 16.6448 81.9067 16.1614 82.0707 15.7471C82.2435 15.3242 82.4811 14.9746 82.7833 14.6984C83.0857 14.4136 83.4484 14.2021 83.8716 14.064C84.2949 13.9173 84.7656 13.8439 85.2839 13.8439C85.7244 13.8526 86.126 13.913 86.4888 14.0252C86.8515 14.1374 87.1409 14.2755 87.3568 14.4395V16.3297C87.1323 15.9845 86.8473 15.7083 86.5017 15.5011C86.1649 15.2854 85.759 15.1731 85.2839 15.1645C84.662 15.1645 84.1869 15.3285 83.8587 15.6565C83.5305 15.9845 83.3664 16.4765 83.3664 17.1324V17.3266C83.3664 17.9999 83.5348 18.4962 83.8716 18.8155C84.2172 19.1263 84.6966 19.2816 85.3098 19.2816C85.8539 19.2816 86.2988 19.1824 86.6442 18.9838C86.9984 18.7853 87.2575 18.5436 87.4216 18.2588V19.8124ZM90.4226 15.3199H88.3496V13.9863H94.0245V15.3199H91.9256V20.4598H90.4226V15.3199ZM99.2102 18.3236H97.7073L96.3987 20.4598H94.7274L96.2303 18.1164C95.8416 17.961 95.5481 17.7323 95.3493 17.4302C95.151 17.1195 95.0513 16.7527 95.0513 16.3297C95.0513 15.5184 95.2845 14.9272 95.7509 14.556C96.2173 14.1762 96.9558 13.9863 97.9664 13.9863H100.726V20.4598H99.2102V18.3236ZM98.0053 15.3199C97.4961 15.3199 97.1288 15.3932 96.904 15.54C96.6798 15.6867 96.5671 15.95 96.5671 16.3297C96.5762 16.5973 96.6708 16.8044 96.8522 16.9512C97.0335 17.0893 97.3231 17.1583 97.7202 17.1583H99.2102V15.3199H98.0053ZM108.312 16.1096L106.446 18.8544H105.967L104.088 16.0967V20.4598H102.572V13.9863H104.14L106.252 17.0159L108.299 13.9863H109.828V20.4598H108.312V16.1096ZM111.682 13.9863H113.185V18.3753L116.295 13.9863H117.733V20.4598H116.23V16.019L113.12 20.4598H111.682V13.9863Z" fill="#131A25"/>
<path fill-rule="evenodd" clip-rule="evenodd" d="M11.1132 11.3191C11.1132 13.5042 9.34183 15.2756 7.15671 15.2756C4.97159 15.2756 3.2002 13.5042 3.2002 11.3191C3.2002 9.13394 4.97159 7.36255 7.15671 7.36255C9.34183 7.36255 11.1132 9.13394 11.1132 11.3191ZM11.1779 20.6588C11.1779 22.8439 9.40648 24.6153 7.22135 24.6153C5.03623 24.6153 3.26484 22.8439 3.26484 20.6588C3.26484 18.4736 5.03623 16.7022 7.22136 16.7022C9.40648 16.7022 11.1779 18.4736 11.1779 20.6588ZM16.5018 24.6369C18.6869 24.6369 20.4583 22.8655 20.4583 20.6803C20.4583 18.4952 18.6869 16.7238 16.5018 16.7238C14.3167 16.7238 12.5453 18.4952 12.5453 20.6803C12.5453 22.8655 14.3167 24.6369 16.5018 24.6369Z" fill="url(#paint0_linear_7783_4028)"/>
<path d="M20.3935 11.3784C20.3935 13.5635 18.6221 15.3349 16.437 15.3349C14.2519 15.3349 12.4805 13.5635 12.4805 11.3784C12.4805 9.19327 14.2519 7.42188 16.437 7.42188C18.6221 7.42188 20.3935 9.19327 20.3935 11.3784ZM14.005 11.3784C14.005 12.7215 15.0938 13.8104 16.437 13.8104C17.7801 13.8104 18.8689 12.7215 18.8689 11.3784C18.8689 10.0352 17.7801 8.94642 16.437 8.94642C15.0938 8.94642 14.005 10.0352 14.005 11.3784Z" fill="url(#paint1_linear_7783_4028)"/>
<defs>
<linearGradient id="paint0_linear_7783_4028" x1="3.2002" y1="22.7763" x2="20.3794" y2="17.6582" gradientUnits="userSpaceOnUse">
<stop stop-color="#F8EC4F"/>
<stop offset="0.567624" stop-color="#4DE544"/>
<stop offset="1" stop-color="#49C8FF"/>
</linearGradient>
<linearGradient id="paint1_linear_7783_4028" x1="18.7257" y1="7.42188" x2="13.9328" y2="15.2647" gradientUnits="userSpaceOnUse">
<stop stop-color="#CDEFFD"/>
<stop offset="1" stop-color="#91E5CB"/>
</linearGradient>
</defs>
</svg>
