<svg width="51" height="24" viewBox="0 0 51 24" fill="none" xmlns="http://www.w3.org/2000/svg">
<path d="M12.2002 24H38.2992C41.4818 24 44.534 22.7357 46.7845 20.4853C49.0349 18.2348 50.2992 15.1826 50.2992 12C50.2992 8.8174 49.0349 5.76516 46.7845 3.51472C44.534 1.26428 41.4818 0 38.2992 0H12.2002C9.0176 0 5.96535 1.26428 3.71491 3.51472C1.46448 5.76516 0.200195 8.8174 0.200195 12C0.200195 15.1826 1.46448 18.2348 3.71491 20.4853C5.96535 22.7357 9.0176 24 12.2002 24ZM12.2002 0.994769H38.2992C41.218 0.994769 44.0172 2.15424 46.0811 4.21813C48.1449 6.28201 49.3044 9.08123 49.3044 12C49.3044 14.9188 48.1449 17.718 46.0811 19.7819C44.0172 21.8458 41.218 23.0052 38.2992 23.0052H12.2002C9.28143 23.0052 6.4822 21.8458 4.41832 19.7819C2.35444 17.718 1.19496 14.9188 1.19496 12C1.19496 9.08123 2.35444 6.28201 4.41832 4.21813C6.4822 2.15424 9.28143 0.994769 12.2002 0.994769Z" fill="#00D800"/>
<path d="M25.3165 13.2747H26.6477C29.1764 13.2747 30.5334 12.2638 30.5334 10.2534C30.5334 8.30407 29.3744 7.32861 26.6477 7.32861H23.7744V15.9644H25.3165V13.2747ZM25.3165 8.74833H26.7845C28.2879 8.74833 28.9301 9.15557 28.9301 10.2163C28.9301 11.3882 28.1897 11.8566 26.7587 11.8566H25.31L25.3165 8.74833Z" fill="#00D800"/>
<path d="M32.8499 16.0627C33.8383 16.0627 34.59 15.5685 34.8862 14.8539V15.9645H36.2431V11.8937C36.2431 10.284 35.3546 9.67236 33.5534 9.67236C32.4926 9.67236 31.7522 9.92025 31.3465 10.2277V12.0289C31.765 11.3754 32.4186 10.9311 33.5534 10.9311C34.3807 10.9311 34.7992 11.2031 34.7992 12.0788V12.3492H33.4053C31.889 12.3492 30.8652 12.7436 30.8652 14.1504C30.8652 15.3593 31.6041 16.0627 32.8499 16.0627ZM33.5791 13.2877H34.7992V13.7866C34.7381 14.2052 34.2809 14.7524 33.3071 14.7524C32.6632 14.7524 32.3204 14.4563 32.3204 13.9879C32.3204 13.447 32.7276 13.2877 33.5791 13.2877Z" fill="#00D800"/>
<path d="M38.5455 17.1236C38.2683 17.1186 38.0035 17.0081 37.805 16.8145V18.1602C37.9901 18.3211 38.4087 18.4306 38.7918 18.4306C39.6062 18.4306 40.16 18.0974 40.704 16.6181L43.17 9.79639H41.6408L40.2598 14.0266L38.5696 9.79639H36.96L39.5628 15.9887C39.3262 16.8274 38.993 17.1236 38.5455 17.1236Z" fill="#00D800"/>
<path d="M9.6543 10.2342V12.1287L12.1654 13.703L18.1774 9.27964C17.9653 8.81309 17.6995 8.37283 17.3855 7.96777L12.1654 11.8084L9.6543 10.2342Z" fill="#00D800"/>
<path d="M12.1646 18.5918C13.0312 18.5918 13.8894 18.4211 14.6901 18.0894C15.4908 17.7577 16.2183 17.2716 16.8312 16.6588C17.444 16.046 17.9301 15.3184 18.2618 14.5177C18.5934 13.717 18.7641 12.8588 18.7641 11.9922C18.764 11.5954 18.7284 11.1995 18.6579 10.8091L17.2366 11.8553C17.2366 11.9004 17.2366 11.9471 17.2366 11.9922C17.2384 13.1269 16.86 14.2296 16.1619 15.1243C15.4638 16.0189 14.4862 16.654 13.3851 16.9281C12.2839 17.2023 11.1226 17.0997 10.0866 16.6369C9.05048 16.174 8.19928 15.3774 7.66878 14.3743C7.13827 13.3711 6.95902 12.2192 7.15963 11.1023C7.36024 9.98541 7.92915 8.96787 8.77558 8.21205C9.62202 7.45623 10.6972 7.00567 11.8296 6.93226C12.962 6.85886 14.0864 7.16684 15.0233 7.80706L16.311 6.86219C15.4899 6.19762 14.5212 5.73987 13.4864 5.52742C12.4516 5.31497 11.381 5.35403 10.3644 5.64131C9.34784 5.92859 8.41509 6.45571 7.64456 7.17834C6.87403 7.90098 6.28822 8.79803 5.93638 9.79409C5.58454 10.7901 5.47695 11.8561 5.62264 12.9024C5.76834 13.9487 6.16307 14.9447 6.77365 15.8067C7.38423 16.6688 8.19283 17.3717 9.13148 17.8563C10.0701 18.3409 11.1114 18.5931 12.1678 18.5918H12.1646Z" fill="#00D800"/>
</svg>
