<svg width="69" height="40" viewBox="0 0 69 40" fill="none" xmlns="http://www.w3.org/2000/svg">
<g clip-path="url(#clip0_13_6074)">
<path d="M60.6359 16.6613V23.9243H58.0784V18.8304H55.6142V23.9275H53.0566V16.6613H60.6359Z" fill="black"/>
<path fill-rule="evenodd" clip-rule="evenodd" d="M47.8012 24.1838C50.0914 24.1838 51.7925 22.7607 51.7925 20.6022C51.7925 18.5116 50.5381 17.1564 48.4412 17.1564C47.4733 17.1564 46.6742 17.5013 46.0725 18.0977C46.2168 16.8656 47.2441 15.9668 48.3754 15.9668L50.6018 15.9625L51.7129 13.8051C51.7129 13.8051 49.2456 13.8624 48.0984 13.8624C45.4772 13.9091 43.707 16.3244 43.707 19.2587C43.707 22.6758 45.4336 24.1838 47.8012 24.1838ZM47.8161 19.0666C48.6651 19.0666 49.2551 19.6333 49.2551 20.6011C49.2551 21.4735 48.7319 22.1919 47.8161 22.193C46.9395 22.193 46.3495 21.5276 46.3495 20.616C46.3495 19.6471 46.9395 19.0666 47.8161 19.0666Z" fill="black"/>
<path d="M41.6248 21.4964C41.6248 21.4964 41.0199 21.8498 40.1179 21.9166C39.081 21.9485 38.1567 21.2831 38.1567 20.1019C38.1567 18.9516 38.9717 18.2915 40.0924 18.2915C40.779 18.2915 41.6874 18.7743 41.6874 18.7743C41.6874 18.7743 42.3517 17.5369 42.6956 16.9183C42.0663 16.4343 41.2258 16.168 40.2495 16.168C37.7842 16.168 35.874 17.798 35.874 20.0881C35.874 22.4069 37.6686 23.9998 40.2495 23.951C40.9711 23.9245 41.9655 23.6676 42.5714 23.2718L41.6248 21.4964Z" fill="black"/>
<path d="M9 11.6091L12.5487 18.0412V21.9645L9.00424 28.3849L9 11.6091Z" fill="#5B57A2"/>
<path d="M22.626 15.6994L25.9508 13.6332L32.7575 13.6268L22.626 19.9199V15.6994Z" fill="#D90751"/>
<path d="M22.6085 11.5711L22.6266 20.0863L19.0693 17.8705V5.14111L22.6085 11.5711Z" fill="#FAB718"/>
<path d="M32.7581 13.6277L25.9524 13.6341L22.6085 11.5711L19.0693 5.14111L32.7581 13.6277Z" fill="#ED6F26"/>
<path d="M22.6266 28.4182V24.2869L19.0693 22.1124L19.0715 34.8545L22.6266 28.4182Z" fill="#63B22F"/>
<path d="M25.9435 26.3697L12.5487 18.0391L9 11.608L32.7428 26.3612L25.9435 26.3697Z" fill="#1487C9"/>
<path d="M19.0713 34.8534L22.6264 28.417L25.9438 26.3689L32.743 26.3615L19.0713 34.8534Z" fill="#017F36"/>
<path d="M9.00391 28.384L19.0983 22.1143L15.7045 20.0024L12.5484 21.9657L9.00391 28.384Z" fill="#984995"/>
</g>
<defs>
<clipPath id="clip0_13_6074">
<rect width="52" height="29.7143" fill="white" transform="translate(9 5.14282)"/>
</clipPath>
</defs>
</svg>
