<svg width="38" height="24" viewBox="0 0 38 24" fill="none" xmlns="http://www.w3.org/2000/svg">
<g clip-path="url(#clip0_7783_6251)">
<path fill-rule="evenodd" clip-rule="evenodd" d="M25.9004 1.1248H12.4004C6.39399 1.1248 1.52519 5.9936 1.52519 12C1.52519 18.0064 6.39399 22.8752 12.4004 22.8752H25.9004C31.9068 22.8752 36.7756 18.0064 36.7756 12C36.7756 5.9936 31.9068 1.1248 25.9004 1.1248ZM12.4004 0C5.77319 0 0.400391 5.3728 0.400391 12C0.400391 18.6272 5.77319 24 12.4004 24H25.9004C32.5276 24 37.9004 18.6272 37.9004 12C37.9004 5.3728 32.5276 0 25.9004 0H12.4004Z" fill="#131A25"/>
<path fill-rule="evenodd" clip-rule="evenodd" d="M28.316 5.54289L28.2476 5.44434L27.3328 6.07871L27.4013 6.17734C28.5889 7.88794 29.3478 9.9245 29.3478 12.0953C29.3478 14.193 28.652 16.1551 27.5398 17.833L27.4735 17.933L28.4016 18.548L28.4679 18.448C29.6812 16.6171 30.4606 14.444 30.4606 12.0953C30.4606 9.6613 29.6099 7.40747 28.316 5.54289ZM25.5652 6.89895L25.4929 6.8033L24.6046 7.47335L24.6768 7.56915C25.6354 8.84041 26.2078 10.422 26.2078 12.1405C26.213 13.6894 25.7362 15.2018 24.8449 16.4687L24.7758 16.5668L25.6857 17.2064L25.7548 17.1084C26.7471 15.6982 27.3198 13.9886 27.3198 12.1394C27.3217 10.2481 26.7055 8.40787 25.5652 6.89895ZM23.0525 8.13849L22.9775 8.04528L22.1084 8.73998L22.184 8.83379C22.9082 9.73264 23.3198 10.843 23.3565 11.9967C23.3932 13.1504 23.053 14.2846 22.3874 15.2277L22.3182 15.3257L23.2262 15.9674L23.2955 15.8693C24.1002 14.7292 24.5117 13.358 24.4679 11.9632C24.424 10.5684 23.9272 9.22583 23.0525 8.13849Z" fill="#131A25"/>
<path d="M19.9004 12C19.9004 7.85786 16.5425 4.5 12.4004 4.5C8.25826 4.5 4.90039 7.85786 4.90039 12C4.90039 16.1421 8.25826 19.5 12.4004 19.5C16.5425 19.5 19.9004 16.1421 19.9004 12Z" fill="#FC3F1D"/>
<path d="M13.4568 16.5073H15.024V7.50732H12.744C10.4528 7.50732 9.24804 8.68572 9.24804 10.4209C9.24804 11.8065 9.90884 12.6225 11.0872 13.4641L9.04004 16.5073H10.736L13.016 13.1017L12.2256 12.5705C11.268 11.9233 10.8016 11.4185 10.8016 10.3305C10.8016 9.37212 11.4752 8.72492 12.7568 8.72492H13.456L13.4568 16.5073Z" fill="white"/>
</g>
<defs>
<clipPath id="clip0_7783_6251">
<rect width="37.6" height="24" fill="white" transform="translate(0.400391)"/>
</clipPath>
</defs>
</svg>
