<svg viewBox="14 31 251 55" fill="none" xmlns="http://www.w3.org/2000/svg">
<g id="Logo">
<g id="stack">
<g id="Combined logo">
<g id="mode=dark, eng=false, type=&#208;&#152;&#208;&#189;&#208;&#178;&#208;&#190;&#208;&#185;&#209;&#129;&#208;&#177;&#208;&#190;&#208;&#186;&#209;&#129;">
<g id="Group">
<path id="Vector" d="M193.266 67.5399C182.264 78.2384 167.098 84.2687 152.019 83.9893C136.933 83.854 122.141 77.3276 111.895 66.4323C111.288 65.7946 111.308 64.781 111.94 64.1671C112.557 63.5682 113.538 63.5832 114.148 64.1771C124.198 74.0963 138.161 79.5715 152.005 79.1844C165.859 78.9188 179.32 72.9048 188.797 62.9906C190.014 61.7176 192.023 61.6813 193.284 62.9104C194.545 64.1395 194.581 66.1667 193.364 67.4409C193.34 67.466 193.315 67.4898 193.291 67.5136L193.266 67.5399Z" fill="#FAD247"/>
<path id="Vector_2" d="M204.541 43.5293C208.468 43.5293 211.663 46.7543 211.663 50.7185C211.663 54.6826 208.468 57.9076 204.541 57.9076C200.614 57.9076 197.419 54.6826 197.419 50.7185C197.419 46.7543 200.614 43.5293 204.541 43.5293ZM204.541 37.9727C197.567 37.9727 191.913 43.6796 191.913 50.7197C191.913 57.7598 197.567 63.4668 204.541 63.4668C211.515 63.4668 217.169 57.7598 217.169 50.7197C217.169 43.6796 211.515 37.9727 204.541 37.9727Z" fill="#FAD247"/>
<g id="Group_2">
<path id="Vector_3" d="M16 36.0762H22.1315V53.6018L34.8489 36.0762H40.6366V62.9798H34.5448V45.493L21.825 62.9798H16V36.0762Z" fill="#353F47"/>
<path id="Vector_4" d="M46.3823 42.3008H52.2855V50.372H61.1936V42.3008H67.1339V62.9787H61.1936V55.2533H52.2855V62.9787H46.3823V42.3008Z" fill="#353F47"/>
<path id="Vector_5" d="M91.897 57.0988C91.897 58.9694 91.197 60.4178 89.8019 61.4414C88.408 62.4663 86.3253 62.9787 83.5586 62.9787H72.6299V42.3008H83.1031C85.6625 42.3008 87.6707 42.7681 89.118 43.704C90.5652 44.6387 91.2876 45.953 91.2876 47.6432C91.2876 48.6693 91.0269 49.5714 90.5094 50.3532C89.9893 51.135 89.2446 51.7439 88.2789 52.1787C90.6881 52.9993 91.897 54.6381 91.897 57.0988ZM78.0775 50.7942H82.5707C84.6497 50.7942 85.691 50.0512 85.691 48.5653C85.691 47.1044 84.6497 46.374 82.5707 46.374H78.0775V50.7942ZM86.3377 56.6378C86.3377 55.8434 86.0832 55.2596 85.5756 54.8887C85.0679 54.5166 84.2686 54.3299 83.1776 54.3299H78.0775V58.9043H83.0634C85.2467 58.9055 86.3377 58.15 86.3377 56.6378Z" fill="#353F47"/>
<path id="Vector_6" d="M118.089 42.2998H123.992V54.5983L133.966 42.2998H139.414V62.9777H133.511V50.6792L123.574 62.9777H118.089V42.2998ZM121.634 34.1133H125.516C125.541 35.0104 125.786 35.7082 126.257 36.2094C126.728 36.708 127.419 36.9586 128.334 36.9586C129.248 36.9586 129.951 36.708 130.447 36.2094C130.943 35.7095 131.191 35.0116 131.191 34.1133H135.15C135.126 38.085 132.864 40.0721 128.371 40.0721C123.901 40.0708 121.659 38.085 121.634 34.1133Z" fill="#353F47"/>
<path id="Vector_7" d="M149.038 61.9203C147.297 61.012 145.94 59.7491 144.961 58.1341C143.985 56.5203 143.499 54.6886 143.499 52.6388C143.499 50.5891 143.985 48.7573 144.961 47.1436C145.94 45.5286 147.297 44.2682 149.038 43.3573C150.773 42.4489 152.734 41.9941 154.919 41.9941C157.076 41.9941 158.959 42.4489 160.571 43.3573C162.182 44.2669 163.36 45.5674 164.094 47.2576L159.486 49.7571C158.42 47.8615 156.884 46.9118 154.882 46.9118C153.333 46.9118 152.049 47.4242 151.033 48.4491C150.016 49.4752 149.511 50.871 149.511 52.6388C149.511 54.4079 150.016 55.8037 151.033 56.8285C152.049 57.8534 153.331 58.3659 154.882 58.3659C156.911 58.3659 158.445 57.4187 159.486 55.5205L164.094 58.0576C163.359 59.6977 162.182 60.9794 160.571 61.9015C158.96 62.8237 157.076 63.286 154.919 63.286C152.734 63.286 150.773 62.8312 149.038 61.9203Z" fill="#353F47"/>
<path id="Vector_8" d="M184.888 44.9339C186.356 45.7408 187.497 46.8747 188.296 48.3356C189.095 49.7952 189.492 51.4866 189.492 53.4086C189.492 55.3806 189.018 57.1309 188.067 58.6545C187.113 60.1793 185.787 61.3582 184.089 62.1902C182.385 63.0221 180.458 63.4393 178.302 63.4393C174.72 63.4393 171.912 62.2804 169.868 59.9613C167.824 57.6421 166.801 54.2405 166.801 49.7563C166.801 45.6055 167.699 42.2928 169.487 39.8208C171.274 37.3488 174.023 35.7276 177.732 34.9583L187.475 33L188.275 38.1494L179.67 39.8797C177.334 40.3408 175.601 41.1088 174.473 42.185C173.342 43.2625 172.675 44.7861 172.474 46.7594C173.361 45.7846 174.427 45.0354 175.672 44.5104C176.914 43.9867 178.274 43.7224 179.743 43.7224C181.703 43.7224 183.413 44.1258 184.888 44.9339ZM182.013 57.2901C182.936 56.2902 183.401 55.0223 183.401 53.485C183.401 51.9226 182.936 50.6797 182.013 49.7563C181.083 48.8342 179.862 48.3719 178.338 48.3719C176.789 48.3719 175.546 48.833 174.607 49.7563C173.665 50.6785 173.197 51.9226 173.197 53.485C173.197 55.0474 173.677 56.3241 174.644 57.3089C175.611 58.2961 176.837 58.7885 178.338 58.7885C179.862 58.7885 181.083 58.2899 182.013 57.2901Z" fill="#353F47"/>
<path id="Vector_9" d="M229.361 55.138H226.275V62.98H220.335V42.3008H226.275V50.3332H229.473L235.032 42.3008H241.353L234.195 52.2175L241.849 62.9787H234.843L229.361 55.138Z" fill="#353F47"/>
<path id="Vector_10" d="M247.943 61.9203C246.204 61.012 244.848 59.7491 243.868 58.1341C242.889 56.5203 242.402 54.6886 242.402 52.6388C242.402 50.5891 242.889 48.7573 243.868 47.1436C244.848 45.5286 246.204 44.2682 247.943 43.3573C249.682 42.4489 251.639 41.9941 253.828 41.9941C255.985 41.9941 257.868 42.4489 259.48 43.3573C261.091 44.2669 262.265 45.5674 263 47.2576L258.395 49.7571C257.329 47.8615 255.793 46.9118 253.788 46.9118C252.241 46.9118 250.959 47.4242 249.943 48.4491C248.926 49.4752 248.419 50.871 248.419 52.6388C248.419 54.4079 248.926 55.8037 249.943 56.8285C250.959 57.8534 252.241 58.3659 253.788 58.3659C255.817 58.3659 257.354 57.4187 258.395 55.5205L262.999 58.0576C262.264 59.6977 261.09 60.9794 259.479 61.9015C257.868 62.8237 255.984 63.286 253.826 63.286C251.639 63.286 249.681 62.8312 247.943 61.9203Z" fill="#353F47"/>
</g>
<path id="Vector_11" d="M104.509 49.263C107.042 49.263 109.103 51.3429 109.103 53.9C109.103 56.4572 107.042 58.537 104.509 58.537C101.976 58.537 99.9154 56.4572 99.9154 53.9C99.9154 51.3429 101.976 49.263 104.509 49.263ZM104.509 44.1387C99.1682 44.1387 94.8389 48.5088 94.8389 53.9013C94.8389 59.2938 99.1682 63.6639 104.509 63.6639C109.85 63.6639 114.179 59.2938 114.179 53.9013C114.179 48.5088 109.85 44.1387 104.509 44.1387Z" fill="#353F47"/>
</g>
</g>
</g>
</g>
</g>
</svg>
