<svg width="24" height="24" viewBox="0 0 24 24" fill="none" xmlns="http://www.w3.org/2000/svg">
<path d="M12 22C6.47715 22 2 17.5228 2 12C2 6.47712 6.47715 1.99997 12 1.99997C17.5228 1.99997 22 6.47712 22 12C22 17.5228 17.5228 22 12 22ZM11.75 15C11.3358 15 11 15.3358 11 15.75V16.25C11 16.6642 11.3358 17 11.75 17H12.25C12.6642 17 13 16.6642 13 16.25V15.75C13 15.3358 12.6642 15 12.25 15H11.75ZM10.8853 6.99997C10.4219 6.99997 10.0694 7.41612 10.1455 7.87327L10.8955 12.3733C10.9558 12.7349 11.2687 13 11.6353 13H12.3647C12.7313 13 13.0442 12.7349 13.1045 12.3733L13.8545 7.87327C13.9306 7.41612 13.5781 6.99997 13.1147 6.99997H10.8853Z" fill="#B90055"/>
</svg>
