<svg width="12" height="12" viewBox="0 0 12 12" fill="none" xmlns="http://www.w3.org/2000/svg">
<g id="Icon / flight-hor">
<path id="Vector" d="M8.05207 6.75C7.88052 6.75 7.72095 6.83795 7.62934 6.98299L5.39716 10.517C5.30555 10.6621 5.14598 10.75 4.97443 10.75L4.52288 10.75C4.38771 10.75 4.29146 10.6187 4.33216 10.4898L5.43084 7.01022C5.47154 6.88132 5.37529 6.75 5.24012 6.75L3.12726 6.75C2.94565 6.75 2.77831 6.84848 2.69014 7.00725L2.14286 7.99275C2.05469 8.15152 1.88735 8.25 1.70574 8.25L1.49932 8.25C1.37137 8.25 1.27633 8.13151 1.30409 8.00661L1.7259 6.10846C1.74177 6.03703 1.74177 5.96297 1.7259 5.89153L1.30409 3.99339C1.27633 3.86848 1.37137 3.75 1.49932 3.75L1.70583 3.75C1.88739 3.75 2.05469 3.84843 2.14289 4.00714L2.69061 4.99286C2.77881 5.15157 2.9461 5.25 3.12767 5.25L5.24058 5.25C5.37577 5.25 5.47201 5.11867 5.4313 4.98976L4.3322 1.51024C4.29149 1.38133 4.38773 1.25 4.52292 1.25L4.97443 1.25C5.14598 1.25 5.30555 1.33795 5.39716 1.48299L7.62934 5.01701C7.72095 5.16205 7.88052 5.25 8.05207 5.25L10.5 5.25C10.6989 5.25 10.8897 5.32902 11.0303 5.46967C11.171 5.61032 11.25 5.80109 11.25 6C11.25 6.19891 11.171 6.38968 11.0303 6.53033C10.8897 6.67098 10.6989 6.75 10.5 6.75L8.05207 6.75Z" fill="#14A0E6"/>
</g>
</svg>
