<svg xmlns="http://www.w3.org/2000/svg" width="24" height="24" viewBox="0 0 24 24" fill="none">
  <path d="M12 2C11.5398 2 11.1667 2.3731 11.1667 2.83333V4C11.1667 4.27614 11.3905 4.5 11.6667 4.5H12.3333C12.6095 4.5 12.8333 4.27614 12.8333 4V2.83333C12.8333 2.3731 12.4602 2 12 2ZM6.10807 4.92969C5.78267 4.60429 5.25509 4.60429 4.92969 4.92969C4.60429 5.25509 4.60429 5.78267 4.92969 6.10807L5.75452 6.9329C5.94978 7.12817 6.26636 7.12817 6.46163 6.9329L6.9329 6.46163C7.12817 6.26636 7.12817 5.94978 6.9329 5.75452L6.10807 4.92969ZM19.0703 4.92969C18.7449 4.60429 18.2173 4.60429 17.8919 4.92969L17.0671 5.75452C16.8718 5.94978 16.8718 6.26636 17.0671 6.46163L17.5384 6.9329C17.7336 7.12817 18.0502 7.12817 18.2455 6.9329L19.0703 6.10807C19.3957 5.78267 19.3957 5.25509 19.0703 4.92969ZM12 6.16667C10.4529 6.16667 8.96917 6.78125 7.87521 7.87521C6.78125 8.96917 6.16667 10.4529 6.16667 12C6.16667 13.5471 6.78125 15.0308 7.87521 16.1248C8.96917 17.2188 10.4529 17.8333 12 17.8333C13.5471 17.8333 15.0308 17.2188 16.1248 16.1248C17.2188 15.0308 17.8333 13.5471 17.8333 12C17.8333 10.4529 17.2188 8.96917 16.1248 7.87521C15.0308 6.78125 13.5471 6.16667 12 6.16667ZM2.83333 11.1667C2.3731 11.1667 2 11.5398 2 12C2 12.4602 2.3731 12.8333 2.83333 12.8333H4C4.27614 12.8333 4.5 12.6095 4.5 12.3333V11.6667C4.5 11.3905 4.27614 11.1667 4 11.1667H2.83333ZM20 11.1667C19.7239 11.1667 19.5 11.3905 19.5 11.6667V12.3333C19.5 12.6095 19.7239 12.8333 20 12.8333H21.1667C21.6269 12.8333 22 12.4602 22 12C22 11.5398 21.6269 11.1667 21.1667 11.1667H20ZM6.46163 17.0671C6.26636 16.8718 5.94978 16.8718 5.75452 17.0671L4.92969 17.8919C4.60429 18.2173 4.60429 18.7449 4.92969 19.0703C5.25509 19.3957 5.78267 19.3957 6.10807 19.0703L6.9329 18.2455C7.12817 18.0502 7.12817 17.7336 6.9329 17.5384L6.46163 17.0671ZM18.2455 17.0671C18.0502 16.8718 17.7336 16.8718 17.5384 17.0671L17.0671 17.5384C16.8718 17.7336 16.8718 18.0502 17.0671 18.2455L17.8919 19.0703C18.2173 19.3957 18.7449 19.3957 19.0703 19.0703C19.3957 18.7449 19.3957 18.2173 19.0703 17.8919L18.2455 17.0671ZM11.6667 19.5C11.3905 19.5 11.1667 19.7239 11.1667 20V21.1667C11.1667 21.6269 11.5398 22 12 22C12.4602 22 12.8333 21.6269 12.8333 21.1667V20C12.8333 19.7239 12.6095 19.5 12.3333 19.5H11.6667Z" fill="#002D73"/>
</svg>